<?xml version="1.0" standalone="no"?>
<!DOCTYPE svg PUBLIC "-//W3C//DTD SVG 20010904//EN"
 "http://www.w3.org/TR/2001/REC-SVG-20010904/DTD/svg10.dtd">
<svg version="1.0" xmlns="http://www.w3.org/2000/svg"
 width="1280.000000pt" height="320.000000pt" viewBox="0 0 1280.000000 320.000000"
 preserveAspectRatio="xMidYMid meet">

<g transform="translate(0.000000,320.000000) scale(0.100000,-0.100000)"
fill="#252525" stroke="none">
<path d="M1325 2801 c-54 -19 -678 -374 -682 -388 -3 -12 311 -207 339 -211
16 -2 84 31 193 93 152 85 175 95 220 95 36 0 64 -8 100 -28 28 -16 103 -58
169 -95 65 -37 127 -67 138 -67 19 0 332 192 343 210 7 11 -651 385 -700 399
-52 14 -61 14 -120 -8z"/>
<path d="M408 2263 c-22 -21 -52 -60 -64 -88 l-24 -50 0 -526 c0 -610 -2 -598
83 -683 42 -43 132 -98 468 -289 229 -131 419 -237 422 -237 4 0 8 255 9 566
l3 566 33 29 c41 37 73 37 114 0 l33 -29 3 -566 c1 -311 6 -566 10 -566 15 1
905 516 906 525 1 11 -361 204 -384 204 -8 0 -100 -49 -205 -109 l-190 -110
-3 102 -3 102 126 126 125 125 0 201 0 201 -25 23 c-14 13 -25 27 -25 30 0 8
272 190 283 190 4 0 7 -161 7 -358 0 -329 1 -360 18 -374 19 -17 283 -151 320
-162 l23 -8 -3 524 -3 523 -27 47 c-32 54 -96 111 -118 105 -9 -2 -145 -90
-303 -196 -158 -105 -290 -191 -295 -191 -4 0 -34 27 -67 60 l-59 60 -201 0
-201 0 -59 -60 c-33 -33 -63 -60 -67 -60 -4 0 -133 83 -287 184 -272 180 -314
206 -325 206 -3 0 -25 -17 -48 -37z m424 -354 c76 -51 138 -95 138 -99 0 -3
-11 -17 -25 -30 l-25 -23 0 -201 0 -201 125 -125 126 -126 -3 -102 -3 -103
-195 112 c-212 121 -243 144 -271 204 -17 37 -19 71 -19 413 0 204 3 372 7
372 4 0 69 -41 145 -91z m810 -107 l108 -108 0 -138 0 -138 -65 -67 -65 -66 0
101 c0 137 -18 196 -80 255 -111 109 -271 76 -346 -71 -13 -25 -19 -69 -23
-159 l-6 -123 -62 65 -63 65 0 138 0 138 108 108 108 108 139 0 139 0 108
-108z"/>
<path d="M4303 2250 c-18 -10 -39 -33 -48 -49 -57 -112 66 -228 192 -180 100
37 119 169 34 226 -45 30 -132 32 -178 3z"/>
<path d="M8572 2250 c-34 -21 -62 -72 -62 -113 0 -35 40 -89 80 -109 120 -61
256 48 206 165 -21 51 -67 77 -136 77 -38 0 -65 -6 -88 -20z"/>
<path d="M3160 1605 l0 -535 125 0 125 0 0 143 0 144 163 6 c94 4 186 13 220
21 125 34 215 103 264 205 25 50 28 67 28 161 0 93 -3 112 -26 161 -36 76 -86
130 -159 168 -98 52 -162 61 -467 61 l-273 0 0 -535z m583 311 c59 -29 90 -77
95 -146 5 -72 -21 -134 -70 -167 -42 -28 -148 -45 -263 -41 l-90 3 -3 188 -2
189 147 -4 c120 -3 155 -7 186 -22z"/>
<path d="M7320 1605 l0 -536 123 3 122 3 0 215 0 215 245 0 245 0 3 -217 2
-218 120 0 120 0 0 535 0 535 -120 0 -120 0 0 -210 0 -210 -250 0 -250 0 0
210 0 210 -120 0 -120 0 0 -535z"/>
<path d="M11402 2123 c-6 -10 -112 -247 -237 -528 -125 -280 -229 -514 -232
-518 -2 -4 53 -6 123 -5 l129 3 46 110 46 110 250 3 250 2 48 -115 47 -115
129 0 c99 0 127 3 124 13 -3 6 -110 246 -238 532 l-232 520 -122 3 c-108 2
-123 1 -131 -15z m212 -428 c41 -99 76 -186 78 -193 2 -11 -30 -13 -162 -13
-91 0 -165 4 -165 9 0 22 160 391 166 385 5 -5 42 -89 83 -188z"/>
<path d="M12250 1605 l0 -535 120 0 120 0 0 535 0 535 -120 0 -120 0 0 -535z"/>
<path d="M6660 1980 l0 -89 -62 -3 -63 -3 0 -85 0 -85 62 -3 61 -3 4 -227 c5
-261 11 -286 85 -352 65 -57 124 -73 241 -68 67 3 109 10 135 23 20 10 37 22
37 25 0 4 -11 33 -24 66 -12 32 -26 67 -29 76 -5 15 -10 15 -54 2 -60 -18 -96
-11 -128 28 -25 29 -25 30 -25 229 l0 199 100 0 100 0 0 90 0 90 -100 0 -100
0 0 90 0 90 -120 0 -120 0 0 -90z"/>
<path d="M5879 1886 c-115 -32 -227 -126 -277 -233 -24 -53 -27 -69 -27 -173
0 -110 2 -119 32 -180 54 -111 156 -194 277 -226 70 -19 210 -18 277 2 78 23
119 47 181 103 163 149 170 429 15 589 -87 91 -196 133 -340 131 -51 0 -113
-7 -138 -13z m204 -187 c148 -41 198 -269 85 -386 -68 -70 -189 -82 -269 -27
-106 73 -121 274 -28 364 56 53 134 71 212 49z"/>
<path d="M9382 1885 c-49 -15 -85 -36 -124 -73 l-28 -26 0 52 0 52 -115 0
-115 0 0 -410 0 -410 119 0 120 0 3 238 c3 226 4 239 26 277 39 67 110 104
205 105 l37 0 0 105 0 105 -42 -1 c-24 0 -62 -6 -86 -14z"/>
<path d="M9877 1879 c-178 -61 -287 -212 -287 -399 0 -163 86 -301 232 -372
76 -37 127 -47 240 -48 112 0 191 20 267 69 78 51 78 49 8 126 l-62 68 -38
-26 c-59 -40 -101 -50 -192 -45 -62 3 -90 10 -118 27 -40 25 -81 73 -92 109
l-6 22 310 0 311 0 6 26 c10 39 -4 149 -27 210 -41 110 -145 204 -263 239 -73
22 -218 19 -289 -6z m253 -179 c46 -23 87 -74 96 -118 l7 -32 -203 0 -202 0 6
32 c8 43 49 94 94 118 51 27 149 27 202 0z"/>
<path d="M4270 1480 l0 -410 120 0 120 0 0 288 c0 159 -3 344 -7 410 l-6 122
-114 0 -113 0 0 -410z"/>
<path d="M4623 1858 c8 -18 85 -203 172 -411 l159 -378 124 3 125 3 168 395
c92 217 168 401 168 408 1 10 -25 12 -110 10 l-112 -3 -59 -140 c-32 -77 -84
-200 -114 -272 -31 -73 -59 -131 -63 -128 -4 2 -57 126 -117 274 l-109 271
-123 0 -122 0 13 -32z"/>
<path d="M8542 1483 l3 -408 118 -3 117 -3 0 411 0 410 -120 0 -120 0 2 -407z"/>
</g>
</svg>
